# xmcd
#
# Track frame offsets:
#	150
#	17195
#	33994
#	51666
#	68290
#	83070
#	100893
#	119484
#	136206
#	154988
#	172744
#	186848
#	202699
#	221195
#	240982
#	268987
#
# Disc length: 4700 seconds
#
# Revision: 1
# Processed by: cddbd v1.4PL0 Copyright (c) Steve Scherf et al.
# Submitted via: CDmax 2.0
#
DISCID=db125a10
DTITLE=Shakira - The One
DYEAR=2003
DGENRE=New Age
TTITLE0=The One (Glen's Mix)
TTITLE1=Objection (Tango)(Album vers)
TTITLE2=Objection (Tango)(Afro-punk vers))
TTITLE3=Underneath Your Clothes
TTITLE4=Wherever, Whenever
TTITLE5=Eyes Like Yours
TTITLE6=Antologia
TTITLE7=Que Vuelvas
TTITLE8=Ready For The Good Times
TTITLE9=Un Poco de Amor
TTITLE10=Te Dejo Madrid
TTITLE11=Moscas en La Casa
TTITLE12=Poem To A Horse
TTITLE13=Si Te Vas
TTITLE14=The One (Album vers)
TTITLE15=(Data Track)
EXTD=Mixed MODE CD-Audio disc:\n\nYEAR: 2003\n\n+ "The ONE" VIDEO VERSION:\n\
EXTD=n- QT (Apple Quick Time) format\n- MPEG format
EXTT0=
EXTT1=
EXTT2=
EXTT3=
EXTT4=
EXTT5=
EXTT6=
EXTT7=
EXTT8=
EXTT9=
EXTT10=
EXTT11=
EXTT12=
EXTT13=
EXTT14=
EXTT15=
PLAYORDER=
